<svg width="104" height="26" viewBox="0 0 104 26" fill="none" xmlns="http://www.w3.org/2000/svg">
<path fill-rule="evenodd" clip-rule="evenodd" d="M90.4263 24.6214C86.3846 24.6444 82.928 22.6621 80.9431 19.6087C78.6022 22.687 74.9132 24.7105 70.8716 24.7337C66.8298 24.7573 63.3733 22.7749 61.3884 19.721C59.0478 22.7995 55.3584 24.8233 51.3169 24.8466C47.2754 24.8698 43.8186 22.8872 41.8336 19.8338C39.493 22.9123 35.8037 24.9356 31.7622 24.9588C27.7204 24.9824 24.2638 23 22.2789 19.9461C19.9383 23.0246 16.249 25.0484 12.2074 25.0716C5.60756 25.1095 0.567442 19.799 0.949837 13.2102C1.33221 6.6213 6.99266 1.24903 13.5925 1.21115C17.6341 1.18794 21.0907 3.17044 23.0757 6.22383C25.4164 3.14543 29.1055 1.12191 33.1473 1.09844C37.1889 1.07523 40.6456 3.05775 42.6302 6.11135C44.9711 3.03312 48.6604 1.00933 52.702 0.986072C56.7435 0.962811 60.2 2.9452 62.1852 5.9988C64.5258 2.92031 68.2149 0.896733 72.2565 0.873421C76.2981 0.850105 79.7549 2.83273 81.7397 5.88625C84.0803 2.8077 87.7698 0.784316 91.8114 0.761C98.4112 0.722935 103.451 6.03336 103.069 12.6225C102.686 19.2113 97.0262 24.5834 90.4263 24.6214Z" fill="#D1E6E4"/>
</svg>
