<svg width="80" height="43" viewBox="0 0 80 43" fill="none" xmlns="http://www.w3.org/2000/svg">
<path d="M61.5268 43C52.4234 43 45.9701 35.5724 40 27.4488C33.9802 35.6223 27.5467 43 18.4733 43C8.28666 43 0 33.3551 0 21.5C0 9.64494 8.28666 0 18.4733 0C27.5798 0 34.2299 7.5798 40 15.3906C45.7668 7.58779 52.4234 0 61.5268 0C71.7141 0 80 9.64494 80 21.5C80 33.3551 71.7099 43 61.5268 43ZM44.3701 21.4216C49.7733 28.8374 54.9967 35.1816 61.5268 35.1816C68.0374 35.1816 73.3333 29.0486 73.3333 21.5038C73.3333 13.9632 68.0374 7.82638 61.5268 7.82638C54.9002 7.82258 49.68 14.1314 44.3701 21.4216ZM18.4733 7.82258C11.9633 7.82258 6.66667 13.959 6.66667 21.5C6.66667 29.0448 11.9633 35.1774 18.4733 35.1774C25.0367 35.1774 30.2767 28.7777 35.6299 21.414C30.3135 14.1314 25.0966 7.82258 18.4733 7.82258Z" fill="#D1E6E4"/>
</svg>
