<svg width="79" height="37" viewBox="0 0 79 37" fill="none" xmlns="http://www.w3.org/2000/svg">
<path d="M1.44514 9.68101C1.44514 9.02188 0.798108 8.48746 0 8.48746V0C6.47363 0 11.7215 4.33434 11.7215 9.68101V27.319C11.7215 27.9781 12.3685 28.5125 13.1667 28.5125C13.9648 28.5125 14.6118 27.9781 14.6118 27.319V9.68101C14.6118 4.33434 19.8597 0 26.3334 0C32.807 0 38.0548 4.33434 38.0548 9.68101V27.319C38.0548 27.9781 38.702 28.5125 39.5 28.5125C40.298 28.5125 40.9452 27.9781 40.9452 27.319V9.68101C40.9452 4.33434 46.193 0 52.6666 0C59.1404 0 64.3883 4.33434 64.3883 9.68101V27.319C64.3883 27.9781 65.0351 28.5125 65.8334 28.5125C66.6315 28.5125 67.2786 27.9781 67.2786 27.319V9.68101C67.2786 4.33434 72.5265 0 79 0V8.48746C78.202 8.48746 77.5548 9.02188 77.5548 9.68101V27.319C77.5548 32.6656 72.307 37 65.8334 37C59.3596 37 54.1117 32.6656 54.1117 27.319V9.68101C54.1117 9.02188 53.4649 8.48746 52.6666 8.48746C51.8685 8.48746 51.2214 9.02188 51.2214 9.68101V27.319C51.2214 32.6656 45.9735 37 39.5 37C33.0265 37 27.7786 32.6656 27.7786 27.319V9.68101C27.7786 9.02188 27.1315 8.48746 26.3334 8.48746C25.5351 8.48746 24.8883 9.02188 24.8883 9.68101V27.319C24.8883 32.6656 19.6403 37 13.1667 37C6.69302 37 1.44514 32.6656 1.44514 27.319V9.68101Z" fill="#D1E6E4"/>
</svg>
